<svg height="480pt" viewBox="-64 0 480 480" width="480pt" xmlns="http://www.w3.org/2000/svg"><path d="m351.433594 26.96875c.984375-2.464844.683594-5.257812-.804688-7.457031-1.488281-2.195313-3.972656-3.511719-6.625-3.511719-29.632812.117188-57.238281 15.074219-73.519531 39.832031-19.359375-34.054687-55.3125-55.300781-94.480469-55.832031-39.167968.53125-75.121094 21.777344-94.480468 55.832031-16.285157-24.757812-43.886719-39.714843-73.519532-39.832031-2.65625 0-5.136718 1.316406-6.625 3.511719-1.492187 2.199219-1.792968 4.992187-.808594 7.457031l11.6875 29.304688c9.402344 23.570312 11.125 49.511718 4.921876 74.117187l-.898438 3.519531c-.183594.683594-.277344 1.382813-.277344 2.089844.042969 39.746094 32.253906 71.957031 72 72 1.476563-.039062 2.914063-.496094 4.144532-1.320312.4375.585937.863281 1.191406 1.308593 1.761718-.746093.242188-1.457031.597656-2.101562 1.046875l-56 40c-2.652344 1.871094-3.898438 5.164063-3.148438 8.320313s3.347657 5.539062 6.554688 6.015625l-30.671875 207.007812c-.339844 2.300781.339844 4.632813 1.859375 6.394531 1.519531 1.761719 3.730469 2.773438 6.054687 2.773438h320c2.324219 0 4.535156-1.011719 6.054688-2.773438 1.519531-1.761718 2.195312-4.09375 1.855468-6.394531l-30.671874-207.007812c3.210937-.476563 5.804687-2.859375 6.554687-6.015625.753906-3.15625-.496094-6.449219-3.144531-8.320313l-56-40c-.648438-.449219-1.355469-.796875-2.105469-1.039062.449219-.578125.878906-1.175781 1.328125-1.761719 1.222656.820312 2.65625 1.277344 4.128906 1.3125 39.746094-.042969 71.953125-32.253906 72-72 0-.707031-.097656-1.40625-.28125-2.089844l-.917968-3.628906c-6.183594-24.585938-4.449219-50.492188 4.949218-74.035156zm-175.429688-10.96875c52.933594 0 96 46.65625 96 104 0 34.542969-15.199218 71.535156-36.898437 89.960938-15.351563 13.007812-35.007813 14.039062-59.101563 14.039062-5.601562 0-10.890625-.070312-16-.320312-15.398437.480468-30.503906-4.285157-42.839844-13.511719-21.882812-18.414063-37.160156-55.496094-37.160156-90.167969 0-57.34375 43.0625-104 96-104zm8 223.929688v16.070312h-16v-16.070312c2.640625.070312 13.359375.070312 16 0zm-32 8.070312-14.800781-11.097656c4.878906 1.054687 9.824219 1.792968 14.800781 2.210937zm-8 112-9.601562-12.800781c-1.296875-1.730469-3.242188-2.863281-5.390625-3.136719-.335938-.042969-.671875-.066406-1.007813-.0625-1.816406.003906-3.578125.621094-5 1.753906l-14.679687 11.742188 35.679687-81.585938zm16-88h32v128l-9.601562-12.800781c-1.574219-1.910157-3.921875-3.015625-6.398438-3.015625-2.476562 0-4.824218 1.105468-6.402344 3.015625l-9.597656 12.800781zm48 3.910156 35.679688 81.601563-14.679688-11.742188c-1.691406-1.355469-3.855468-1.96875-6.003906-1.699219-2.148438.269532-4.097656 1.398438-5.398438 3.128907l-9.597656 12.800781zm-8-27.910156v-8.894531c4.984375-.421875 9.933594-1.160157 14.824219-2.21875zm-120-56.566406c-27.152344-3.953125-47.460937-26.96875-48-54.402344l.710938-2.824219c7-27.851562 5.039062-57.203125-5.601563-83.878906l-6.894531-17.289063c23 4.089844 42.617188 19.007813 52.695312 40.082032-5.910156 14.921875-8.933593 30.828125-8.910156 46.878906.140625 23.265625 5.613282 46.1875 16 67.007812zm15.878906 34.476562 37.71875 28.296875-70.773437-4.703125zm-70.609374 238.089844 29.488281-199 74.402343 4.960938-48.488281 110.839843c-1.480469 3.371094-.464843 7.316407 2.457031 9.558594 2.921876 2.242187 6.996094 2.199219 9.871094-.101563l33.550782-26.851562 17.449218 23.257812v37.335938c0 3.445312 2.203125 6.5 5.46875 7.589844s6.863282-.035156 8.929688-2.789063l17.601562-23.464843 17.597656 23.464843c1.511719 2.011719 3.882813 3.199219 6.402344 3.199219.859375-.003906 1.710938-.140625 2.527344-.40625 3.269531-1.089844 5.472656-4.148438 5.472656-7.59375v-37.335938l17.445313-23.265624 33.554687 26.847656c2.871094 2.300781 6.941406 2.339844 9.859375.101562 2.921875-2.234375 3.9375-6.175781 2.46875-9.546875l-48.472656-110.839843 74.398437-4.960938 29.472657 199zm263.882812-214.496094-70.785156 4.71875 37.75-28.3125zm35.742188-199.199218c-10.640626 26.640624-12.613282 55.957031-5.640626 83.785156l.738282 2.941406c-.539063 27.433594-20.847656 50.449219-48 54.402344v-4.410156c10.382812-20.824219 15.859375-43.753907 16.007812-67.023438.023438-16.050781-3-31.964844-8.914062-46.886719 10.074218-21.078125 29.695312-36 52.695312-40.082031zm0 0"/><path d="m136.003906 128c17.671875 0 32-14.328125 32-32s-14.328125-32-32-32c-17.675781 0-32 14.328125-32 32s14.324219 32 32 32zm0-48c8.835938 0 16 7.164062 16 16s-7.164062 16-16 16c-8.835937 0-16-7.164062-16-16s7.164063-16 16-16zm0 0"/><path d="m216.003906 128c17.671875 0 32-14.328125 32-32s-14.328125-32-32-32c-17.675781 0-32 14.328125-32 32s14.324219 32 32 32zm0-48c8.835938 0 16 7.164062 16 16s-7.164062 16-16 16c-8.835937 0-16-7.164062-16-16s7.164063-16 16-16zm0 0"/><path d="m128.003906 144c-4.417968 0-8 3.582031-8 8 .394532 6.195312 4.097656 11.699219 9.6875 14.398438l14.726563 44.105468c1.082031 3.273438 4.136719 5.488282 7.585937 5.496094 3.441406-.003906 6.5-2.210938 7.582032-5.480469l11.511718-34.597656c1.601563.046875 3.265625.078125 4.898438.078125 1.628906 0 3.261718 0 4.894531-.078125l11.511719 34.597656c1.085937 3.273438 4.152344 5.484375 7.601562 5.480469 3.4375 0 6.492188-2.203125 7.582032-5.464844l14.730468-44.136718c5.589844-2.699219 9.292969-8.203126 9.6875-14.398438.195313-4.417969-3.226562-8.160156-7.644531-8.355469-4.417969-.195312-8.160156 3.226563-8.355469 7.644531-2.226562 2.757813-16 8.710938-40 8.710938s-37.777344-5.953125-40-8.710938c-.371094-4.140624-3.847656-7.304687-8-7.289062zm72 38.695312-2.746094-8.238281c2-.304687 3.945313-.671875 5.847657-1.066406zm-48 0-3.105468-9.304687c1.90625.394531 3.847656.761719 5.847656 1.066406zm0 0"/></svg>