<svg height="498pt" viewBox="-21 0 498 498.33552" width="498pt" xmlns="http://www.w3.org/2000/svg"><path d="m456.039062 109.9375c-.546874-2.054688-1.886718-3.804688-3.726562-4.867188l-180.144531-104c-3.828125-2.207031-8.71875-.898437-10.929688 2.929688l-260 450.335938c-2.207031 3.824218-.898437 8.71875 2.929688 10.929687l55.429687 32c3.828125 2.207031 8.71875.894531 10.929688-2.929687l96-166.28125 117.785156 68c3.824219 2.210937 8.71875.898437 10.925781-2.925782l160-277.128906c1.0625-1.835938 1.347657-4.015625.800781-6.0625zm-395.398437 369.46875-41.601563-24 92-159.351562 41.601563 24zm224.742187-101.175781-166.277343-96 152-263.261719 56.855469 32.800781c-8.46875 12.183594-13.804688 26.269531-15.539063 41.007813-.9375 15.753906 1.171875 31.539062 6.210937 46.496094 4.734376 17.109374 7.109376 27.199218.796876 36-2.019532 2.621093-4.449219 4.898437-7.199219 6.742187-6.636719 4.675781-12.175781 10.738281-16.238281 17.769531-7.46875 10.714844-10.996094 23.683594-9.984376 36.703125 2.367188 11.9375 9.246094 22.503907 19.199219 29.503907 6.59375 5.734374 10.320313 9.214843 10.28125 14.085937 0 3.050781-1.25 4.625-5.023437 8.730469-4.730469 4.628906-8.34375 10.28125-10.5625 16.519531-3.566406 13.148437-1.765625 27.179687 5.007812 39zm29.914063-51.816407c-3.433594-9.503906-.675781-20.140624 6.941406-26.78125 5.585938-4.960937 8.925781-11.972656 9.25-19.433593.101563-12.480469-8.335937-19.816407-15.777343-26.296875-6.953126-4.550782-11.90625-11.589844-13.847657-19.671875-.351562-9.46875 2.464844-18.78125 8-26.472657 2.980469-5.164062 7.082031-9.59375 12-12.964843 4.039063-2.808594 7.601563-6.25 10.542969-10.191407 11.035156-15.433593 6.449219-32 1.601562-49.601562-4.476562-13.050781-6.414062-26.835938-5.703124-40.617188 1.570312-12.46875 6.246093-24.34375 13.597656-34.535156l95.417968 55.089844zm0 0"/><path d="m303.039062 76.632812c5.429688-9.40625 3.867188-21.289062-3.8125-28.96875-7.675781-7.679687-19.558593-9.25-28.964843-3.820312-9.40625 5.425781-13.996094 16.496094-11.191407 26.988281 2.804688 10.492188 12.308594 17.792969 23.167969 17.800781 8.585938.027344 16.527344-4.554687 20.800781-12zm-13.863281-8c-1.8125 3.132813-5.5 4.664063-9 3.726563-3.496093-.9375-5.925781-4.105469-5.929687-7.726563 0-3.621093 2.433594-6.792968 5.929687-7.730468.671875-.175782 1.367188-.269532 2.0625-.269532 1.40625-.003906 2.785157.363282 4 1.070313 3.828125 2.210937 5.136719 7.101563 2.929688 10.929687zm0 0"/><path d="m385.441406 301.054688c-1.503906-2.519532-4.226562-4.066407-7.160156-4.066407-2.9375 0-5.65625 1.546875-7.160156 4.066407l-20.417969 40.839843c-3.71875 7.433594-3.324219 16.261719 1.039063 23.335938 4.363281 7.074219 12.074218 11.386719 20.386718 11.402343h12.222656c8.316407 0 16.042969-4.308593 20.414063-11.386718 4.375-7.074219 4.769531-15.910156 1.050781-23.351563zm5.75 55.785156c-1.4375 2.375-4.023437 3.816406-6.800781 3.792968h-12.261719c-2.773437-.003906-5.347656-1.4375-6.804687-3.796874-1.453125-2.355469-1.585938-5.300782-.347657-7.78125l13.261719-26.535157 13.265625 26.535157c1.269532 2.476562 1.136719 5.4375-.351562 7.785156zm0 0"/><path d="m345.441406 413.054688c-1.503906-2.519532-4.226562-4.066407-7.160156-4.066407-2.9375 0-5.65625 1.546875-7.160156 4.066407l-20.417969 40.839843c-3.71875 7.433594-3.324219 16.261719 1.039063 23.335938 4.363281 7.074219 12.074218 11.386719 20.386718 11.402343h12.222656c8.316407 0 16.042969-4.308593 20.414063-11.386718 4.375-7.074219 4.769531-15.910156 1.050781-23.351563zm5.75 55.785156c-1.4375 2.375-4.023437 3.816406-6.800781 3.792968h-12.261719c-2.773437-.003906-5.347656-1.4375-6.804687-3.796874-1.453125-2.355469-1.585938-5.300782-.347657-7.78125l13.261719-26.535157 13.265625 26.535157c1.269532 2.476562 1.136719 5.4375-.351562 7.785156zm0 0"/></svg>