<svg height="480pt" viewBox="-64 0 480 480.00006" width="480pt" xmlns="http://www.w3.org/2000/svg"><path d="m232 273.089844v-145.089844h16c13.253906 0 24-10.746094 24-24v-16c0-13.253906-10.746094-24-24-24h-16v-40c0-13.253906-10.746094-24-24-24h-64c-13.253906 0-24 10.746094-24 24v40h-16c-13.253906 0-24 10.746094-24 24v16c0 13.253906 10.746094 24 24 24h16v145.0625c-68.5 7.910156-120.144531 65.984375-120 134.9375.0429688 39.746094 32.253906 71.957031 72 72h208c19.105469.027344 37.433594-7.550781 50.941406-21.058594 13.507813-13.507812 21.085938-31.839844 21.058594-50.941406-.125-68.847656-51.636719-126.757812-120-134.910156zm-96-249.089844c0-4.417969 3.582031-8 8-8h64c4.417969 0 8 3.582031 8 8v40h-80zm-40 80v-16c0-4.417969 3.582031-8 8-8h144c4.417969 0 8 3.582031 8 8v16c0 4.417969-3.582031 8-8 8h-144c-4.417969 0-8-3.582031-8-8zm120 24v152c0 .289062.136719.527344.160156.800781.234375 3.96875 3.378906 7.144531 7.34375 7.421875 33.617188 2.113282 64.785156 18.296875 85.847656 44.578125-3.128906-1.214843-6.183593-2.5625-9.367187-4.058593-11.238281-6.058594-23.777344-9.304688-36.542969-9.460938-11.828125-.234375-23.4375 3.203125-33.226562 9.847656-15.167969 10.117188-34.933594 10.117188-50.101563 0-9.789062-6.648437-21.402343-10.089844-33.234375-9.847656-11.84375-.234375-23.46875 3.210938-33.277344 9.855469-7.347656 5.132812-16.136718 7.789062-25.097656 7.582031-8.9375.207031-17.707031-2.457031-25.015625-7.605469-3.851562-2.429687-7.910156-4.515625-12.128906-6.234375 20.675781-20.515625 48.09375-32.832031 77.160156-34.65625 3.964844-.273437 7.109375-3.449218 7.34375-7.414062 0-.28125.160157-.519532.160157-.800782v-152.007812zm103.640625 319.609375c-10.511719 10.511719-24.773437 16.410156-39.640625 16.390625h-208c-30.914062-.035156-55.964844-25.085938-56-56-.027344-25.886719 8.375-51.082031 23.929688-71.777344 5.453124 1.261719 10.636718 3.5 15.292968 6.609375 9.792969 6.667969 21.414063 10.125 33.257813 9.886719 11.851562.238281 23.488281-3.203125 33.304687-9.855469 15.167969-10.113281 34.933594-10.113281 50.101563 0 20.234375 13.148438 46.3125 13.148438 66.546875 0 7.3125-5.128906 16.074218-7.78125 25.007812-7.574219 10.421875.164063 20.644532 2.910157 29.742188 8 9.042968 4.652344 18.839844 7.660157 28.9375 8.878907 9.113281 17.199219 13.875 36.367187 13.878906 55.832031.019531 14.851562-5.863281 29.101562-16.359375 39.609375zm0 0"/><path d="m64 360c-13.253906 0-24 10.746094-24 24s10.746094 24 24 24 24-10.746094 24-24-10.746094-24-24-24zm0 32c-4.417969 0-8-3.582031-8-8s3.582031-8 8-8 8 3.582031 8 8-3.582031 8-8 8zm0 0"/><path d="m152 400c-13.253906 0-24 10.746094-24 24s10.746094 24 24 24 24-10.746094 24-24-10.746094-24-24-24zm0 32c-4.417969 0-8-3.582031-8-8s3.582031-8 8-8 8 3.582031 8 8-3.582031 8-8 8zm0 0"/><path d="m288 360c-13.253906 0-24 10.746094-24 24s10.746094 24 24 24 24-10.746094 24-24-10.746094-24-24-24zm0 32c-4.417969 0-8-3.582031-8-8s3.582031-8 8-8 8 3.582031 8 8-3.582031 8-8 8zm0 0"/></svg>