<svg height="480pt" viewBox="-10 0 480 480.01692" width="480pt" xmlns="http://www.w3.org/2000/svg"><path d="m459.417969 237.617188c.089843-.242188.167969-.492188.230469-.746094.207031-.640625.332031-1.308594.375-1.980469.058593-.992187-.078126-1.984375-.398438-2.921875-.058594-.234375-.128906-.460938-.207031-.6875 0-.082031-.042969-.175781-.074219-.257812-37-86.957032-156.136719-168.65625-303.574219-208.175782-27.175781-7.332031-54.769531-13.007812-82.632812-17-20.945313-2.964844-62.839844-5.695312-64.609375-5.832031-2.210938-.144531-4.378906.636719-5.996094 2.152344-1.613281 1.515625-2.52734375 3.632812-2.5234375 5.847656v64c0 4.417969 3.5820315 8 7.9999995 8h8v392c0 4.417969 3.582032 8 8 8h32c4.417969 0 8-3.582031 8-8v-392h8c4.417969 0 8-3.582031 8-8v-8h24v8.882813c0 3.914062 2.832032 7.257812 6.695313 7.894531 22.023437 3.648437 44.707031 8.582031 69.304687 15.105469 109.304688 29.308593 203.898438 80.503906 266.648438 144.390624 1.46875 1.410157 3.421875 2.195313 5.457031 2.191407 1.054688-.003907 2.097657-.214844 3.070313-.625.304687-.125.535156-.398438.800781-.558594.65625-.324219 1.269531-.738281 1.816406-1.222656v-.066407h.046875c.667969-.691406 1.203125-1.5 1.570313-2.390624zm-41.363281-44.417969c-22.007813-17.3125-45.332032-32.890625-69.757813-46.582031-2.515625-9.535157-7.769531-18.121094-15.113281-24.703126-4.019532-3.277343-8.480469-5.972656-13.253906-8-3.691407-1.234374-6.953126-3.5-9.402344-6.527343-1.058594-1.59375-1.839844-3.355469-2.304688-5.210938 42.007813 23.171875 79.269532 54.054688 109.832032 91.03125zm-370.046876 270.816406h-16v-384h16zm72-397.863281v-10.136719c0-4.417969-3.582031-8-8-8h-40c-4.417968 0-8 3.582031-8 8v8h-48v-47.429687c13.601563.96875 40.113282 3.015624 54.878907 5.109374 27.222656 3.894532 54.183593 9.4375 80.730469 16.609376 48.535156 12.824218 95.453124 31.136718 139.847656 54.578124-.742188 8.367188 1.375 16.742188 6.007812 23.75 2.5625 3.597657 5.902344 6.578126 9.769532 8.71875-39.609376-18.625-80.808594-33.652343-123.105469-44.910156-22.640625-6.023437-43.695313-10.695312-64.128907-14.289062zm0 0"/></svg>