<svg height="480pt" viewBox="-48 0 480 480" width="480pt" xmlns="http://www.w3.org/2000/svg"><path d="m192 0c-109.886719 0-192 118.265625-192 224 0 61.230469 25.28125 94.144531 72 132.113281v83.886719c.027344 22.082031 17.917969 39.972656 40 40h160c22.082031-.027344 39.972656-17.917969 40-40v-83.886719c46.71875-37.96875 72-70.882812 72-132.113281 0-105.734375-82.113281-224-192-224zm107 346.046875-3 2.402344v91.550781c0 13.253906-10.746094 24-24 24h-160c-13.253906 0-24-10.746094-24-24v-91.550781l-3-2.402344c-45.761719-36.703125-69-65.65625-69-122.046875-.652344-77.917969 40.558594-150.191406 107.945312-189.3125 0 .480469.039063.921875.054688 1.457031-.554688 8.589844 2.597656 17.003907 8.664062 23.113281 6.105469 6.039063 14.484376 9.21875 23.0625 8.742188 4.484376-.578125 8.992188.890625 12.273438 4 3.121094 3.261719 4.59375 7.765625 4 12.238281-.523438 8.589844 2.625 16.996094 8.664062 23.121094 3.136719 3.132813 8.21875 3.125 11.347657-.011719 3.128906-3.136718 3.125-8.21875-.011719-11.347656-3.121094-3.261719-4.59375-7.765625-4-12.238281.566406-8.589844-2.601562-17.003907-8.691406-23.089844-6.085938-6.082031-14.503906-9.242187-23.09375-8.671875-4.476563.554688-8.964844-.941406-12.214844-4.070312-3.132812-3.234376-4.605469-7.726563-4-12.1875-.011719-2.832032-.261719-5.660157-.742188-8.453126 16.65625-7.230468 34.585938-11.070312 52.742188-11.289062 78.273438 0 165.238281 78.960938 175.054688 187.640625-2.105469.773437-4.28125 1.34375-6.496094 1.703125-17.058594 2.511719-30.445313 15.921875-32.925782 32.984375-1.203124 10.613281-9.585937 18.980469-20.199218 20.167969-8.355469 1.054687-16.105469 4.921875-21.96875 10.96875-3.132813 3.128906-3.132813 8.203125 0 11.335937 3.128906 3.128907 8.203125 3.128907 11.335937 0 3.597657-3.746093 8.425781-6.074219 13.597657-6.5625 17.066406-2.414062 30.484374-15.816406 32.921874-32.878906.492188-5.21875 2.859376-10.085937 6.664063-13.695313 3.585937-3.769531 8.417969-6.105468 13.601563-6.574218 1.34375-.257813 2.804687-.570313 4.324218-.945313 0 1.296875.097656 2.574219.097656 3.878907-.007812 56.367187-23.207031 85.320312-69.007812 122.023437zm0 0"/><path d="m160 184c0-26.472656-17.945312-48-40-48s-40 21.527344-40 48 17.945312 48 40 48 40-21.527344 40-48zm-64 0c0-17.648438 10.769531-32 24-32s24 14.351562 24 32-10.769531 32-24 32-24-14.351562-24-32zm0 0"/><path d="m264 232c22.054688 0 40-21.527344 40-48s-17.945312-48-40-48-40 21.527344-40 48 17.945312 48 40 48zm0-80c13.230469 0 24 14.351562 24 32s-10.769531 32-24 32-24-14.351562-24-32 10.769531-32 24-32zm0 0"/><path d="m153.511719 324.671875c1.503906 2.085937 3.917969 3.328125 6.488281 3.328125h64c2.570312 0 4.988281-1.234375 6.492188-3.320312 1.503906-2.085938 1.914062-4.769532 1.101562-7.207032l-32-96c-1.082031-3.285156-4.144531-5.503906-7.601562-5.503906-3.457032 0-6.519532 2.21875-7.601563 5.503906l-32 96c-.804687 2.441406-.386719 5.117188 1.121094 7.199219zm38.488281-75.375 20.902344 62.703125h-41.804688zm0 0"/><path d="m240 344h-96c-.804688.035156-1.605469.121094-2.398438.246094-2.625.152344-5.230468.566406-7.769531 1.242187-.402343.085938-.796875.207031-1.175781.359375-16.933594 4.988282-28.585938 20.5-28.65625 38.152344v24c.066406 17.640625 11.699219 33.152344 28.617188 38.152344.378906.152344.773437.273437 1.175781.359375 2.542969.675781 5.148437 1.089843 7.773437 1.242187.808594.128906 1.617188.210938 2.433594.246094h96c.804688-.035156 1.605469-.117188 2.398438-.246094 2.628906-.152344 5.234374-.566406 7.777343-1.242187.402344-.085938.796875-.207031 1.175781-.359375 16.933594-4.988282 28.578126-20.5 28.648438-38.152344v-24c-.027344-22.082031-17.917969-39.972656-40-40zm-80 16v16h-16v-16zm-16 72v-16h16v16zm80 0v-9.753906l16-4v13.753906zm40-24c-.019531 6.789062-2.929688 13.246094-8 17.761719v-17.761719c0-2.464844-1.136719-4.789062-3.078125-6.308594-1.941406-1.515625-4.476563-2.050781-6.867187-1.453125l-32 8c-3.558594.894531-6.054688 4.09375-6.054688 7.761719v16h-32v-24c0-4.417969-3.582031-8-8-8h-32c-4.417969 0-8 3.582031-8 8v17.761719c-5.070312-4.515625-7.980469-10.972657-8-17.761719v-24c.019531-6.789062 2.929688-13.246094 8-17.761719v17.761719c0 4.417969 3.582031 8 8 8h32c4.417969 0 8-3.582031 8-8v-24h64c13.253906 0 24 10.746094 24 24zm0 0"/></svg>